HIERARCHY
ROOT SpineBase
{
  OFFSET 0.000000 0.000000 0.000000
  CHANNELS 6 Xposition Yposition Zposition Zrotation Xrotation Yrotation
  JOINT SpineMid
  {
    OFFSET -0.000000 30.684592 0.000000
    CHANNELS 3 Zrotation Xrotation Yrotation
    JOINT SpineShoulder
    {
      OFFSET 0.084433 22.716564 -0.291031
      CHANNELS 3 Zrotation Xrotation Yrotation
      JOINT Neck
      {
        OFFSET 0.013780 7.567414 -0.309415
        CHANNELS 3 Zrotation Xrotation Yrotation
        JOINT Head
        {
          OFFSET -4.249043 13.104742 -2.288805
          CHANNELS 3 Zrotation Xrotation Yrotation
          End Site
          {
            OFFSET 0 0 0
          }
        }
      }
      JOINT ShoulderLeft
      {
        OFFSET -16.978326 -3.202536 7.324381
        CHANNELS 3 Zrotation Xrotation Yrotation
        JOINT ElbowLeft
        {
          OFFSET -12.045788 -15.283865 -4.379315
          CHANNELS 3 Zrotation Xrotation Yrotation
          JOINT WristLeft
          {
            OFFSET -0.561799 25.906531 -15.741361
            CHANNELS 3 Zrotation Xrotation Yrotation
            JOINT HandLeft
            {
              OFFSET -2.597996 6.059013 -3.991266
              CHANNELS 3 Zrotation Xrotation Yrotation
              JOINT HandTipLeft
              {
                OFFSET 0.090892 4.402523 -4.499638
                CHANNELS 3 Zrotation Xrotation Yrotation
                End Site
                {
                  OFFSET 0 0 0
                }
              }
              JOINT ThumbLeft
              {
                OFFSET 4.645404 1.215470 -1.173547
                CHANNELS 3 Zrotation Xrotation Yrotation
                End Site
                {
                  OFFSET 0 0 0
                }
              }
            }
          }
        }
      }
      JOINT ShoulderRight
      {
        OFFSET 15.065563 -1.270144 -7.147671
        CHANNELS 3 Zrotation Xrotation Yrotation
        JOINT ElbowRight
        {
          OFFSET 8.314940 -24.719863 -1.761539
          CHANNELS 3 Zrotation Xrotation Yrotation
          JOINT WristRight
          {
            OFFSET -4.221256 -19.085166 -10.801612
            CHANNELS 3 Zrotation Xrotation Yrotation
            JOINT HandRight
            {
              OFFSET -4.317404 -5.636355 -5.317149
              CHANNELS 3 Zrotation Xrotation Yrotation
              JOINT HandTipRight
              {
                OFFSET -2.614175 -3.421215 -3.096166
                CHANNELS 3 Zrotation Xrotation Yrotation
                End Site
                {
                  OFFSET 0 0 0
                }
              }
              JOINT ThumbRight
              {
                OFFSET 1.078560 -1.577414 -2.733336
                CHANNELS 3 Zrotation Xrotation Yrotation
                End Site
                {
                  OFFSET 0 0 0
                }
              }
            }
          }
        }
      }
    }
  }
  JOINT HipLeft
  {
    OFFSET -6.300623 0.682614 -0.355676
    CHANNELS 3 Zrotation Xrotation Yrotation
    JOINT KneeLeft
    {
      OFFSET -0.768899 -38.145251 -0.518602
      CHANNELS 3 Zrotation Xrotation Yrotation
      JOINT AnkleLeft
      {
        OFFSET 3.078020 -38.359372 6.230702
        CHANNELS 3 Zrotation Xrotation Yrotation
        JOINT FootLeft
        {
          OFFSET -1.694289 -7.627019 -4.818340
          CHANNELS 3 Zrotation Xrotation Yrotation
          End Site
          {
            OFFSET 0 0 0
          }
        }
      }
    }
  }
  JOINT HipRight
  {
    OFFSET 6.758737 1.668376 -5.691536
    CHANNELS 3 Zrotation Xrotation Yrotation
    JOINT KneeRight
    {
      OFFSET 5.123951 -32.970908 -5.253380
      CHANNELS 3 Zrotation Xrotation Yrotation
      JOINT AnkleRight
      {
        OFFSET 2.895953 -40.495761 8.687138
        CHANNELS 3 Zrotation Xrotation Yrotation
        JOINT FootRight
        {
          OFFSET -3.575575 -2.259687 -13.583933
          CHANNELS 3 Zrotation Xrotation Yrotation
          End Site
          {
            OFFSET 0 0 0
          }
        }
      }
    }
  }
}
MOTION
Frames: 10
Frame Time: 0.033333
-18.580210 64.233131 339.671873 15.652563 -32.649918 21.026709 -1.016945 -0.886390 -15.759959 -0.782661 0.713008 0.434423 30.805296 13.422729 -12.692191 0.000000 0.000000 0.000000 20.708093 -4.315519 23.533045 108.887646 -68.543929 116.107694 71.253258 -21.448884 -88.821720 -121.903783 -79.582808 12.825053 0.000000 0.000000 0.000000 0.000000 0.000000 0.000000 6.425160 45.822799 -6.143526 -39.546274 31.161693 4.115332 24.488556 -4.807035 -17.700426 -1.028268 21.818429 -13.068575 0.000000 0.000000 0.000000 0.000000 0.000000 0.000000 -25.445244 44.826747 -1.264192 17.920908 2.293765 1.840113 0.103643 25.678160 -8.120969 0.000000 0.000000 0.000000 -6.275929 62.431094 -8.456869 12.782730 -28.571373 0.606660 3.772976 -39.084086 -4.613735 0.000000 0.000000 0.000000
-19.233353 66.912192 339.687605 15.005064 -34.508631 26.910206 -0.571232 -0.133076 -21.732698 -0.749644 0.629305 0.428895 30.983065 16.469113 -13.514170 0.000000 0.000000 0.000000 21.663152 -3.681289 23.117833 113.937626 -68.892685 123.221796 131.778293 -64.632822 -98.573058 112.952871 -15.975256 -65.972154 0.000000 0.000000 0.000000 0.000000 0.000000 0.000000 18.130204 49.649521 -13.715409 -64.335518 41.924128 14.365606 27.149902 -14.932059 -11.763183 -43.146248 30.750097 7.961010 0.000000 0.000000 0.000000 0.000000 0.000000 0.000000 -14.407180 51.145087 -11.630730 16.525058 -1.958824 2.369829 -0.230821 26.857796 -8.505235 0.000000 0.000000 0.000000 6.340061 61.884165 -21.825229 11.967439 -24.222489 0.303070 4.843506 -42.714448 -3.939602 0.000000 0.000000 0.000000
-19.871893 68.758514 339.265186 14.119158 -34.908929 29.553947 -0.132529 -0.086987 -24.755103 -0.659661 0.454260 0.413827 29.328358 20.241075 -13.432447 0.000000 0.000000 0.000000 22.186793 -2.816846 21.638208 107.001584 -62.236243 111.485707 145.908119 -71.163262 -115.289737 103.945190 -13.417013 -80.983729 0.000000 0.000000 0.000000 0.000000 0.000000 0.000000 28.716006 53.879398 -20.803713 -75.924360 44.615659 15.855771 20.852695 -19.131461 -9.491097 -29.133960 19.482608 6.215761 0.000000 0.000000 0.000000 0.000000 0.000000 0.000000 -7.620536 51.824072 -18.080501 16.789968 -3.209291 2.705500 -7.868458 43.068018 -6.326089 0.000000 0.000000 0.000000 13.718178 58.962272 -29.366907 9.222214 -18.651250 -0.370403 5.508481 -44.081163 -4.525420 0.000000 0.000000 0.000000
-20.180747 69.655972 338.297608 13.556893 -34.542556 33.588197 -0.172240 -0.324287 -29.027085 -0.728531 -0.150714 0.484797 26.692881 21.994516 -12.924879 0.000000 0.000000 0.000000 22.508147 -1.780243 20.150297 99.936316 -58.445471 100.513421 125.696491 -57.957215 -120.215562 104.125308 4.287953 -67.504879 0.000000 0.000000 0.000000 0.000000 0.000000 0.000000 31.032711 59.471448 -22.274159 -71.208780 45.054973 10.181553 29.341384 -38.611892 -2.490010 -21.168295 25.701376 3.195541 0.000000 0.000000 0.000000 0.000000 0.000000 0.000000 -2.092743 51.952843 -24.974752 17.845286 -4.265823 2.945143 0.022988 50.939099 -14.366626 0.000000 0.000000 0.000000 18.383216 54.277143 -35.866791 7.855257 -13.335231 -0.497507 6.983741 -47.832342 -3.593549 0.000000 0.000000 0.000000
-19.740464 69.185394 336.221650 14.162409 -32.236881 36.185961 -0.997641 -0.981767 -31.540361 -0.214335 -0.103296 0.350571 20.814388 21.488625 -10.633282 0.000000 0.000000 0.000000 20.996446 -1.219457 18.590852 105.945435 -61.243836 111.903837 65.528436 -39.496589 -70.222825 132.223358 -61.473514 -44.247933 0.000000 0.000000 0.000000 0.000000 0.000000 0.000000 18.861209 61.797453 -12.798020 -60.435384 38.915528 4.733878 20.548847 -18.349672 -9.450320 -4.160066 1.600329 0.187390 0.000000 0.000000 0.000000 0.000000 0.000000 0.000000 -6.308340 49.439235 -25.010890 20.636892 -2.771016 2.572308 17.088223 54.113210 -29.648058 0.000000 0.000000 0.000000 12.851402 48.643347 -34.954458 9.356824 -5.537342 -0.008071 5.484631 -46.516309 -3.069821 0.000000 0.000000 0.000000
-19.388145 67.491335 334.764894 14.386186 -30.783108 34.402676 -0.831743 -1.096115 -29.933561 -0.366795 -0.498821 0.447505 15.871386 20.834637 -8.841229 0.000000 0.000000 0.000000 20.465484 -1.363508 18.009033 125.535430 -70.144849 142.165345 46.128593 -17.354136 -72.614533 -167.487940 -63.047741 -9.345896 0.000000 0.000000 0.000000 0.000000 0.000000 0.000000 4.384906 59.487794 -1.833818 -45.311717 27.549023 -0.183156 20.804837 -18.877151 -8.536316 -3.594529 4.085403 -0.635552 0.000000 0.000000 0.000000 0.000000 0.000000 0.000000 -14.802258 46.762730 -18.804124 23.299315 -1.121359 1.937742 35.563943 52.851649 -45.615047 0.000000 0.000000 0.000000 11.581848 46.685780 -33.468113 5.475071 -4.243873 -0.677227 7.478927 -44.688992 -1.331443 0.000000 0.000000 0.000000
-19.229869 65.142782 333.850790 14.236373 -30.340033 32.864305 -0.110288 -0.692797 -28.684211 -0.885672 -1.012216 0.635056 10.710480 20.835022 -7.169887 0.000000 0.000000 0.000000 20.405549 -2.000278 18.495078 156.285518 -76.312249 179.972365 68.046658 -19.153097 -83.319384 178.848474 -37.252971 -24.588916 0.000000 0.000000 0.000000 0.000000 0.000000 0.000000 -3.993334 52.523583 3.108109 -28.511236 13.010426 -2.786454 14.136643 -10.565897 -8.672824 -0.915484 6.900544 -3.662135 0.000000 0.000000 0.000000 0.000000 0.000000 0.000000 -19.477834 44.695670 -15.006218 24.208343 0.231324 1.305782 77.203374 52.921601 -86.082411 0.000000 0.000000 0.000000 13.267412 45.602816 -33.719678 0.497562 -3.904926 -1.557290 10.316966 -43.529039 0.890504 0.000000 0.000000 0.000000
-19.151774 63.386747 333.545705 13.708068 -30.636588 27.134197 0.666626 -0.058436 -23.273742 -1.482433 -1.593986 0.822998 9.890364 19.978834 -7.014644 0.000000 0.000000 0.000000 20.516725 -1.964619 18.501389 171.504038 -80.478973 -164.425709 98.163231 -39.293655 -82.301430 155.099325 -7.322789 -32.580023 0.000000 0.000000 0.000000 0.000000 0.000000 0.000000 -7.774244 46.101391 4.364006 -17.987378 6.684013 -1.920577 7.169240 -1.823512 -8.063444 9.776944 6.175374 -10.684535 0.000000 0.000000 0.000000 0.000000 0.000000 0.000000 -25.295945 42.107848 -7.100952 24.636701 0.018860 0.962415 95.143109 44.709974 -102.965521 0.000000 0.000000 0.000000 13.295748 48.083558 -29.320415 -4.667847 -7.166937 -3.206638 14.246821 -43.669042 2.865294 0.000000 0.000000 0.000000
-19.306490 62.415264 334.624005 13.014705 -32.804752 18.988575 1.448835 0.785139 -15.334462 -2.157691 -1.709872 0.995133 10.289081 20.659008 -7.506510 0.000000 0.000000 0.000000 20.596318 -1.460369 19.191688 -155.924127 -80.354947 -130.513579 121.266820 -42.291682 -83.398580 155.408235 10.599308 -40.983961 0.000000 0.000000 0.000000 0.000000 0.000000 0.000000 -8.871469 40.777928 3.571255 -9.612188 6.336591 -1.181676 -1.561998 8.213236 -7.063855 19.405798 1.047848 -13.039731 0.000000 0.000000 0.000000 0.000000 0.000000 0.000000 -29.917834 42.487704 3.089294 23.536877 -3.139396 1.415149 111.019311 40.313039 -120.429242 0.000000 0.000000 0.000000 11.019482 55.370153 -21.264381 -7.844746 -13.642895 -5.332202 15.131497 -40.695887 2.138534 0.000000 0.000000 0.000000
-19.723054 62.225896 335.930452 11.870902 -34.784947 6.224723 1.481594 1.730207 -2.842983 -2.403983 -1.549624 1.022134 13.828090 20.101391 -8.946979 0.000000 0.000000 0.000000 21.174644 -1.220658 19.822664 -139.197530 -75.281483 -110.509142 136.554570 -40.709080 -88.339466 159.862778 14.098232 -54.016579 0.000000 0.000000 0.000000 0.000000 0.000000 0.000000 -7.282252 35.396430 1.068492 -5.892927 10.848723 -0.356288 -5.145646 13.811042 -8.167488 22.285437 -1.275926 -11.756189 0.000000 0.000000 0.000000 0.000000 0.000000 0.000000 -35.727789 38.896444 16.466471 21.119596 -4.988080 1.488137 118.775621 39.846991 -129.707266 0.000000 0.000000 0.000000 -3.984074 63.473412 -0.298293 -9.922832 -20.776552 -7.527385 15.459867 -39.525108 1.438952 0.000000 0.000000 0.000000
